name rise36.2859peak64.2979fall75.1499.mot
datacolumns 19
datarows 14
range 9.52662800000000 9.54829400000000
endheader
time	ground_force1_vx	ground_force1_vy	ground_force1_vz	ground_force1_px	ground_force1_py	ground_force1_pz	ground_force2_vx	ground_force2_vy	ground_force2_vz	ground_force2_px	ground_force2_py	ground_force2_pz	ground_torque1_x	ground_torque1_y	ground_torque1_z	ground_torque2_x	ground_torque2_y	ground_torque2_z	
9.52662800000000	-48.56836600000000	785.34576300000003	59.03685600000000	0.15101800000000	0.00000000000000	0.10588100000000	-16.96031400000000	73.95663900000000	14.97540400000000	0.39893800000000	0.00000000000000	-0.07040600000000	0.00000000000000	27.00988600000000	0.00000000000000	0.00000000000000	9.99669700000000	0.00000000000000	
9.52830200000000	-48.39555900000000	781.20782199999996	58.52375200000000	0.15085600000000	0.00000000000000	0.10587300000000	-16.96279100000000	79.18374400000000	15.40644700000000	0.40097900000000	0.00000000000000	-0.07086200000000	0.00000000000000	26.78280900000000	0.00000000000000	0.00000000000000	10.39442000000000	0.00000000000000	
9.52997400000000	-48.23373900000000	776.96296800000005	57.98438000000000	0.15070900000000	0.00000000000000	0.10586100000000	-16.76781500000000	84.22799999999999	15.70877000000000	0.40298400000000	0.00000000000000	-0.07129700000000	0.00000000000000	26.55345800000000	0.00000000000000	0.00000000000000	10.71705900000000	0.00000000000000	
9.53162700000000	-48.08394100000000	772.61353299999996	57.41936900000000	0.15057800000000	0.00000000000000	0.10584400000000	-16.40178300000000	89.13275400000001	15.89728300000000	0.40495200000000	0.00000000000000	-0.07171400000000	0.00000000000000	26.32215300000000	0.00000000000000	0.00000000000000	10.97239800000000	0.00000000000000	
9.53329800000000	-47.94716500000000	768.16182200000003	56.82939100000000	0.15046200000000	0.00000000000000	0.10582200000000	-15.89320300000000	93.94945300000001	15.98879400000000	0.40688000000000	0.00000000000000	-0.07211500000000	0.00000000000000	26.08920600000000	0.00000000000000	0.00000000000000	11.16959200000000	0.00000000000000	
9.53497100000000	-47.82437200000000	763.61010799999997	56.21515400000000	0.15036000000000	0.00000000000000	0.10579600000000	-15.27048000000000	98.73268000000000	16.00049500000000	0.40876700000000	0.00000000000000	-0.07250200000000	0.00000000000000	25.85492500000000	0.00000000000000	0.00000000000000	11.31824300000000	0.00000000000000	
9.53662900000000	-47.71648000000000	758.96061599999996	55.57740800000000	0.15027300000000	0.00000000000000	0.10576500000000	-14.56008700000000	103.53577000000000	15.94867900000000	0.41061000000000	0.00000000000000	-0.07287600000000	0.00000000000000	25.61960600000000	0.00000000000000	0.00000000000000	11.42760700000000	0.00000000000000	
9.53830200000000	-47.62435400000000	754.21552399999996	54.91693400000000	0.15019900000000	0.00000000000000	0.10572900000000	-13.78518400000000	108.40724800000000	15.84774300000000	0.41240800000000	0.00000000000000	-0.07324000000000	0.00000000000000	25.38353800000000	0.00000000000000	0.00000000000000	11.50595000000000	0.00000000000000	
9.53996000000000	-47.54880600000000	749.37694799999997	54.23454300000000	0.15013800000000	0.00000000000000	0.10568900000000	-12.96473000000000	113.38822600000000	15.70950400000000	0.41416100000000	0.00000000000000	-0.07359300000000	0.00000000000000	25.14699900000000	0.00000000000000	0.00000000000000	11.56009900000000	0.00000000000000	
9.54163200000000	-47.49058800000000	744.44693900000004	53.53107600000000	0.15009100000000	0.00000000000000	0.10564300000000	-12.11304600000000	118.51078600000000	15.54283600000000	0.41586600000000	0.00000000000000	-0.07393700000000	0.00000000000000	24.91025500000000	0.00000000000000	0.00000000000000	11.59517100000000	0.00000000000000	
9.54329500000000	-47.45038400000000	739.42747799999995	52.80739700000000	0.15005500000000	0.00000000000000	0.10559200000000	-11.23980900000000	123.79728600000000	15.35358300000000	0.41752400000000	0.00000000000000	-0.07427400000000	0.00000000000000	24.67355700000000	0.00000000000000	0.00000000000000	11.61448800000000	0.00000000000000	
9.54496000000000	-47.42880900000000	734.32046800000001	52.06439100000000	0.15003100000000	0.00000000000000	0.10553500000000	-10.35037500000000	129.26049499999999	15.14471400000000	0.41913300000000	0.00000000000000	-0.07460300000000	0.00000000000000	24.43714500000000	0.00000000000000	0.00000000000000	11.61962900000000	0.00000000000000	
9.54662700000000	-47.42640100000000	729.12773200000004	51.30296300000000	0.15001700000000	0.00000000000000	0.10547400000000	-9.44636300000000	134.90436500000001	14.91666400000000	0.42069100000000	0.00000000000000	-0.07492500000000	0.00000000000000	24.20124100000000	0.00000000000000	0.00000000000000	11.61061800000000	0.00000000000000	
9.54829400000000	-47.44361900000000	723.85100699999998	50.52403000000000	0.15001400000000	0.00000000000000	0.10540700000000	-8.52639900000000	140.72529499999999	14.66780300000000	0.42220000000000	0.00000000000000	-0.07524200000000	0.00000000000000	23.96605300000000	0.00000000000000	0.00000000000000	11.58619100000000	0.00000000000000	
